# xmcd CD database file
# Generated: Fri Feb 7 08:11:46 2003 by KSCD
# 
# Track frame offsets:
#       150
#       18194
#       39109
#       58223
#       69300
#       89610
#       120383
#       138441
#       163133
#       189322
#
# Disc length: 2919 seconds
#
# Revision: 2
# Processed by: cddbd v1.4PL0 Copyright (c) Steve Scherf et al.
# Submitted via: Kscd 1.3.3
#
DISCID=7e0b650a
DTITLE=Johnnie Red - Show Us the Way
DYEAR=1900
DGENRE=
TTITLE0=You Alone
TTITLE1=All I want to do
TTITLE2=I will dwell
TTITLE3=Oh Jesus
TTITLE4=Thru out eternity
TTITLE5=I give You Glory
TTITLE6=Jesus You're the One
TTITLE7=My Everything
TTITLE8=Worthy is the Lamb
TTITLE9=Show us the Way
EXTD=
EXTT0=
EXTT1=
EXTT2=
EXTT3=
EXTT4=
EXTT5=
EXTT6=
EXTT7=
EXTT8=
EXTT9=
PLAYORDER=
